<svg width="24" height="24" viewBox="0 0 24 24" fill="none" xmlns="http://www.w3.org/2000/svg">
  <path d="M10.325 4.317c.426-1.756 2.924-1.756 3.35 0a1.724 1.724 0 002.573 1.066
           c1.543-.94 3.31.826 2.37 2.37a1.724 1.724 0 001.065 2.572
           c1.756.426 1.756 2.924 0 3.35a1.724 1.724 0 00-1.066 2.573
           c.94 1.543-.826 3.31-2.37 2.37a1.724 1.724 0 00-2.572 1.065
           c-.426 1.756-2.924 1.756-3.35 0a1.724 1.724 0 00-2.573-1.066
           c-1.543.94-3.31-.826-2.37-2.37a1.724 1.724 0 00-1.065-2.572
           c-1.756-.426-1.756-2.924 0-3.35a1.724 1.724 0 001.066-2.573
           c-.94-1.543.826-3.31 2.37-2.37.996.608 2.296.07 2.572-1.065z"
    fill="rgba(100,116,139,0.09)" stroke="#64748B" stroke-width="1.75" stroke-linejoin="round"/>
  <circle cx="12" cy="12" r="3" fill="rgba(100,116,139,0.18)" stroke="#64748B" stroke-width="1.75"/>
</svg>
